<svg id="Layer_1" data-name="Layer 1" xmlns="http://www.w3.org/2000/svg" viewBox="0 0 331.8 192.31"><defs><style>.cls-1{fill:#ed2980;}.cls-2{font-size:50px;fill:#fff;font-family:Poppins-SemiBold, Poppins;font-weight:600;}</style></defs><path class="cls-1" d="M158.12,0c3.14,1.11,4.14,3.5,4.64,6.64C165.06,21.1,167.58,35.53,170,50c.73,4.35,1.39,8.71,2.54,13.19.31-.58.67-1.13.93-1.72,1.76-4,3.55-8,5.24-12.06.93-2.22,2.38-3.74,4.86-3.83s4.22,1.55,5.15,4.26q4.1,11.86,8.15,23.74c.22.64.45,1.28.86,2.45.62-1.06,1-1.62,1.3-2.21,2.05-3.8,4.15-7.58,6.11-11.44a5.54,5.54,0,0,1,5.43-3.28c8,0,16.08,0,24.28,0v9.71c-.66,0-1.35.09-2,.1-5.9,0-11.81.08-17.71,0A3.36,3.36,0,0,0,211.59,71c-3.25,6.38-6.66,12.68-10,19-1.58,3-4.36,4.22-6.88,2.76a7.45,7.45,0,0,1-2.87-3.63c-2.62-7.13-5-14.33-7.52-21.5-.29-.84-.64-1.66-1.14-3-.49,1-.82,1.55-1.08,2.16-2.19,5.22-4.36,10.46-6.57,15.68-.94,2.22-3.46,4-5.43,3.76a5.46,5.46,0,0,1-4.54-4.86c-.17-2-.7-4-1-6.07q-2.49-15.12-5-30.24c-.37-2.26-.71-4.53-1.13-7.2-.41.58-.69.79-.72,1-.95,7.46-1.85,14.93-2.82,22.39s-2,14.9-3,22.36c-.85,6.5-1.61,13-2.46,19.51a12.71,12.71,0,0,1-.93,3.91,4.38,4.38,0,0,1-4.52,2.4,5.56,5.56,0,0,1-4.73-4.52c-1.72-8.89-3.4-17.79-5.11-26.69q-2.31-12-4.66-24c0-.23-.15-.45-.36-1.08-.48.83-.81,1.33-1.08,1.87-1.67,3.42-3.39,6.81-5,10.28a5.32,5.32,0,0,1-5,3.45c-7,.11-14,0-21.16,0V59.18c.66,0,1.34-.09,2-.09,4.54,0,9.08-.11,13.62,0,1.87.07,2.72-.63,3.48-2.23,3.34-7.06,6.81-14,10.22-21.07.81-1.68,1.81-3.14,3.81-3.52a4.91,4.91,0,0,1,6.08,4.19q3.31,17.31,6.64,34.63a1.72,1.72,0,0,0,.83,1.15c.32-2.23.66-4.45,1-6.68q1.33-10,2.64-20.07c.83-6.44,1.61-12.89,2.45-19.33s1.72-12.86,2.58-19.29a2.66,2.66,0,0,0,.07-.39c-.1-3.14,1.11-5.43,4.21-6.52Z"/><text class="cls-2" transform="translate(0 162.66)">RapidRescue</text></svg>