<svg id="Layer_1" data-name="Layer 1" xmlns="http://www.w3.org/2000/svg" viewBox="0 0 137.93 109.55"><defs><style>.cls-1{fill:#6b6b6b;}</style></defs><path class="cls-1" d="M61.18,0c3.14,1.11,4.14,3.5,4.64,6.64C68.12,21.1,70.65,35.53,73.07,50c.73,4.35,1.4,8.71,2.54,13.19.32-.58.67-1.13.93-1.72,1.77-4,3.56-8,5.24-12.06.93-2.22,2.39-3.74,4.86-3.83s4.22,1.55,5.16,4.26q4.08,11.86,8.14,23.74c.22.64.45,1.28.86,2.45.63-1.06,1-1.62,1.31-2.21,2-3.8,4.15-7.58,6.11-11.44a5.53,5.53,0,0,1,5.43-3.28c8,0,16.07,0,24.28,0v9.71c-.67,0-1.35.09-2,.1-5.9,0-11.8.08-17.7,0A3.34,3.34,0,0,0,114.66,71c-3.26,6.38-6.67,12.68-10,19-1.58,3-4.36,4.22-6.88,2.76a7.34,7.34,0,0,1-2.87-3.63c-2.63-7.13-5-14.33-7.52-21.5-.29-.84-.64-1.66-1.14-3-.49,1-.83,1.55-1.08,2.16-2.2,5.22-4.37,10.46-6.58,15.68-.94,2.22-3.45,4-5.42,3.76a5.47,5.47,0,0,1-4.55-4.86c-.17-2-.7-4-1-6.07q-2.49-15.12-5-30.24c-.37-2.26-.71-4.53-1.13-7.2-.41.58-.68.79-.71,1-1,7.46-1.86,14.93-2.82,22.39s-2,14.9-3,22.36c-.84,6.5-1.61,13-2.46,19.51a12.16,12.16,0,0,1-.93,3.91,4.37,4.37,0,0,1-4.51,2.4A5.57,5.57,0,0,1,42.28,105c-1.72-8.89-3.39-17.79-5.1-26.69q-2.31-12-4.67-24c0-.23-.15-.45-.36-1.08-.48.83-.81,1.33-1.07,1.87-1.67,3.42-3.4,6.81-5,10.28a5.34,5.34,0,0,1-5,3.45c-7,.11-14,0-21.16,0V59.18c.66,0,1.35-.09,2-.09,4.54,0,9.09-.11,13.62,0a3.23,3.23,0,0,0,3.49-2.23c3.33-7.06,6.81-14,10.21-21.07.82-1.68,1.82-3.14,3.81-3.52a4.91,4.91,0,0,1,6.09,4.19q3.31,17.31,6.63,34.63a1.74,1.74,0,0,0,.84,1.15c.32-2.23.65-4.45,1-6.68q1.34-10,2.64-20.07c.83-6.44,1.61-12.89,2.45-19.33s1.72-12.86,2.59-19.29a2.63,2.63,0,0,0,.06-.39c-.1-3.14,1.11-5.43,4.21-6.52Z"/></svg>